<?xml version="1.0" encoding="iso-8859-1"?>

<!DOCTYPE svg PUBLIC "-//W3C//DTD SVG 1.1//EN" "http://www.w3.org/Graphics/SVG/1.1/DTD/svg11.dtd">
<!-- Uploaded to: SVG Repo, www.svgrepo.com, Generator: SVG Repo Mixer Tools -->
<svg version="1.1" id="_x34_" xmlns="http://www.w3.org/2000/svg" xmlns:xlink="http://www.w3.org/1999/xlink" 
	 viewBox="0 0 512 512"  xml:space="preserve">
<g>
	<path style="opacity:0.09;fill:#040000;" d="M91.512,420.464v85.317c0,3.401,2.783,6.184,6.184,6.184h316.608
		c3.401,0,6.184-2.783,6.184-6.184V91.488L91.512,420.464z"/>
	<g>
		<path style="opacity:0.8;fill:#040000;" d="M420.457,46.9v458.886c0,3.448-2.759,6.207-6.131,6.207H97.674
			c-3.372,0-6.131-2.759-6.131-6.207V46.9c0-3.449,2.759-6.207,6.131-6.207h68.051V6.207c0-3.372,2.759-6.207,6.207-6.207h168.136
			c3.449,0,6.207,2.835,6.207,6.207v34.485h68.051C417.698,40.693,420.457,43.451,420.457,46.9z"/>
		<rect x="124.657" y="337.884" style="opacity:0.9;fill:#2B98B7;" width="262.686" height="147.377"/>
		<polygon style="fill:#FFFFFF;" points="207.805,147.876 317.749,149.381 271.058,232.212 328.287,229.196 190.029,393.062 
			228.887,277.391 183.714,275.887 		"/>
		<path style="opacity:0.09;fill:#040000;" d="M91.512,420.499v85.317c0,3.401,2.783,6.184,6.184,6.184h316.608
			c3.401,0,6.184-2.783,6.184-6.184V91.522L91.512,420.499z"/>
	</g>
</g>
</svg>